<mxfile host="65bd71144e">
    <diagram id="8O3gJFYXngl0h--qhgRL" name="Modelle">
        <mxGraphModel dx="893" dy="610" grid="1" gridSize="10" guides="1" tooltips="1" connect="1" arrows="1" fold="1" page="1" pageScale="1" pageWidth="900" pageHeight="800" math="0" shadow="0">
            <root>
                <mxCell id="0"/>
                <mxCell id="1" parent="0"/>
                <mxCell id="xl_VdABn302iVjI30lWS-9" value="Exercises" style="swimlane;fontStyle=0;childLayout=stackLayout;horizontal=1;startSize=30;horizontalStack=0;resizeParent=1;resizeParentMax=0;resizeLast=0;collapsible=1;marginBottom=0;whiteSpace=wrap;html=1;" parent="1" vertex="1">
                    <mxGeometry x="170" y="10" width="200" height="210" as="geometry"/>
                </mxCell>
                <mxCell id="xl_VdABn302iVjI30lWS-14" value="uid - String" style="text;strokeColor=default;fillColor=none;align=left;verticalAlign=middle;spacingLeft=4;spacingRight=4;overflow=hidden;points=[[0,0.5],[1,0.5]];portConstraint=eastwest;rotatable=0;whiteSpace=wrap;html=1;" parent="xl_VdABn302iVjI30lWS-9" vertex="1">
                    <mxGeometry y="30" width="200" height="30" as="geometry"/>
                </mxCell>
                <mxCell id="xl_VdABn302iVjI30lWS-15" value="muscles - List&amp;lt;ExerciseMuscles&amp;gt;" style="text;strokeColor=default;fillColor=none;align=left;verticalAlign=middle;spacingLeft=4;spacingRight=4;overflow=hidden;points=[[0,0.5],[1,0.5]];portConstraint=eastwest;rotatable=0;whiteSpace=wrap;html=1;" parent="xl_VdABn302iVjI30lWS-9" vertex="1">
                    <mxGeometry y="60" width="200" height="30" as="geometry"/>
                </mxCell>
                <mxCell id="xl_VdABn302iVjI30lWS-10" value="name - String" style="text;strokeColor=default;fillColor=none;align=left;verticalAlign=middle;spacingLeft=4;spacingRight=4;overflow=hidden;points=[[0,0.5],[1,0.5]];portConstraint=eastwest;rotatable=0;whiteSpace=wrap;html=1;" parent="xl_VdABn302iVjI30lWS-9" vertex="1">
                    <mxGeometry y="90" width="200" height="30" as="geometry"/>
                </mxCell>
                <mxCell id="xl_VdABn302iVjI30lWS-11" value="description - String" style="text;strokeColor=default;fillColor=none;align=left;verticalAlign=middle;spacingLeft=4;spacingRight=4;overflow=hidden;points=[[0,0.5],[1,0.5]];portConstraint=eastwest;rotatable=0;whiteSpace=wrap;html=1;" parent="xl_VdABn302iVjI30lWS-9" vertex="1">
                    <mxGeometry y="120" width="200" height="30" as="geometry"/>
                </mxCell>
                <mxCell id="xl_VdABn302iVjI30lWS-25" value="difficulty - ExerciseDifficulty" style="text;strokeColor=none;fillColor=none;align=left;verticalAlign=middle;spacingLeft=4;spacingRight=4;overflow=hidden;points=[[0,0.5],[1,0.5]];portConstraint=eastwest;rotatable=0;whiteSpace=wrap;html=1;" parent="xl_VdABn302iVjI30lWS-9" vertex="1">
                    <mxGeometry y="150" width="200" height="30" as="geometry"/>
                </mxCell>
                <mxCell id="xl_VdABn302iVjI30lWS-12" value="imageURL - String" style="text;strokeColor=default;fillColor=none;align=left;verticalAlign=middle;spacingLeft=4;spacingRight=4;overflow=hidden;points=[[0,0.5],[1,0.5]];portConstraint=eastwest;rotatable=0;whiteSpace=wrap;html=1;" parent="xl_VdABn302iVjI30lWS-9" vertex="1">
                    <mxGeometry y="180" width="200" height="30" as="geometry"/>
                </mxCell>
                <mxCell id="xl_VdABn302iVjI30lWS-20" style="edgeStyle=none;html=1;entryX=0;entryY=0.5;entryDx=0;entryDy=0;" parent="1" source="xl_VdABn302iVjI30lWS-16" target="xl_VdABn302iVjI30lWS-15" edge="1">
                    <mxGeometry relative="1" as="geometry"/>
                </mxCell>
                <mxCell id="xl_VdABn302iVjI30lWS-16" value="ExerciseMuscles" style="swimlane;fontStyle=0;childLayout=stackLayout;horizontal=1;startSize=30;horizontalStack=0;resizeParent=1;resizeParentMax=0;resizeLast=0;collapsible=1;marginBottom=0;whiteSpace=wrap;html=1;" parent="1" vertex="1">
                    <mxGeometry x="10" y="10" width="140" height="110" as="geometry"/>
                </mxCell>
                <mxCell id="xl_VdABn302iVjI30lWS-17" value="chest, back, shoulders, biceps, triceps, legs, abs, cardio, fullbody, other" style="text;strokeColor=default;fillColor=none;align=left;verticalAlign=middle;spacingLeft=4;spacingRight=4;overflow=hidden;points=[[0,0.5],[1,0.5]];portConstraint=eastwest;rotatable=0;whiteSpace=wrap;html=1;" parent="xl_VdABn302iVjI30lWS-16" vertex="1">
                    <mxGeometry y="30" width="140" height="80" as="geometry"/>
                </mxCell>
                <mxCell id="xl_VdABn302iVjI30lWS-29" style="edgeStyle=none;html=1;entryX=0;entryY=0.5;entryDx=0;entryDy=0;" parent="1" source="xl_VdABn302iVjI30lWS-21" target="xl_VdABn302iVjI30lWS-25" edge="1">
                    <mxGeometry relative="1" as="geometry"/>
                </mxCell>
                <mxCell id="xl_VdABn302iVjI30lWS-21" value="ExerciseDifficulty" style="swimlane;fontStyle=0;childLayout=stackLayout;horizontal=1;startSize=30;horizontalStack=0;resizeParent=1;resizeParentMax=0;resizeLast=0;collapsible=1;marginBottom=0;whiteSpace=wrap;html=1;strokeColor=default;" parent="1" vertex="1">
                    <mxGeometry x="10" y="140" width="140" height="120" as="geometry"/>
                </mxCell>
                <mxCell id="xl_VdABn302iVjI30lWS-22" value="easy" style="text;strokeColor=default;fillColor=none;align=left;verticalAlign=middle;spacingLeft=4;spacingRight=4;overflow=hidden;points=[[0,0.5],[1,0.5]];portConstraint=eastwest;rotatable=0;whiteSpace=wrap;html=1;" parent="xl_VdABn302iVjI30lWS-21" vertex="1">
                    <mxGeometry y="30" width="140" height="30" as="geometry"/>
                </mxCell>
                <mxCell id="xl_VdABn302iVjI30lWS-23" value="medium" style="text;strokeColor=default;fillColor=none;align=left;verticalAlign=middle;spacingLeft=4;spacingRight=4;overflow=hidden;points=[[0,0.5],[1,0.5]];portConstraint=eastwest;rotatable=0;whiteSpace=wrap;html=1;" parent="xl_VdABn302iVjI30lWS-21" vertex="1">
                    <mxGeometry y="60" width="140" height="30" as="geometry"/>
                </mxCell>
                <mxCell id="xl_VdABn302iVjI30lWS-24" value="hard" style="text;strokeColor=default;fillColor=none;align=left;verticalAlign=middle;spacingLeft=4;spacingRight=4;overflow=hidden;points=[[0,0.5],[1,0.5]];portConstraint=eastwest;rotatable=0;whiteSpace=wrap;html=1;" parent="xl_VdABn302iVjI30lWS-21" vertex="1">
                    <mxGeometry y="90" width="140" height="30" as="geometry"/>
                </mxCell>
                <mxCell id="xl_VdABn302iVjI30lWS-42" style="edgeStyle=none;html=1;entryX=0;entryY=0.5;entryDx=0;entryDy=0;" parent="1" source="xl_VdABn302iVjI30lWS-30" target="xl_VdABn302iVjI30lWS-39" edge="1">
                    <mxGeometry relative="1" as="geometry"/>
                </mxCell>
                <mxCell id="xl_VdABn302iVjI30lWS-30" value="UserRole" style="swimlane;fontStyle=0;childLayout=stackLayout;horizontal=1;startSize=30;horizontalStack=0;resizeParent=1;resizeParentMax=0;resizeLast=0;collapsible=1;marginBottom=0;whiteSpace=wrap;html=1;strokeColor=default;" parent="1" vertex="1">
                    <mxGeometry x="10" y="280" width="140" height="90" as="geometry"/>
                </mxCell>
                <mxCell id="xl_VdABn302iVjI30lWS-31" value="admin" style="text;strokeColor=default;fillColor=none;align=left;verticalAlign=middle;spacingLeft=4;spacingRight=4;overflow=hidden;points=[[0,0.5],[1,0.5]];portConstraint=eastwest;rotatable=0;whiteSpace=wrap;html=1;" parent="xl_VdABn302iVjI30lWS-30" vertex="1">
                    <mxGeometry y="30" width="140" height="30" as="geometry"/>
                </mxCell>
                <mxCell id="xl_VdABn302iVjI30lWS-32" value="user" style="text;strokeColor=default;fillColor=none;align=left;verticalAlign=middle;spacingLeft=4;spacingRight=4;overflow=hidden;points=[[0,0.5],[1,0.5]];portConstraint=eastwest;rotatable=0;whiteSpace=wrap;html=1;" parent="xl_VdABn302iVjI30lWS-30" vertex="1">
                    <mxGeometry y="60" width="140" height="30" as="geometry"/>
                </mxCell>
                <mxCell id="xl_VdABn302iVjI30lWS-34" value="User" style="swimlane;fontStyle=0;childLayout=stackLayout;horizontal=1;startSize=30;horizontalStack=0;resizeParent=1;resizeParentMax=0;resizeLast=0;collapsible=1;marginBottom=0;whiteSpace=wrap;html=1;strokeColor=default;" parent="1" vertex="1">
                    <mxGeometry x="170" y="240" width="200" height="180" as="geometry"/>
                </mxCell>
                <mxCell id="xl_VdABn302iVjI30lWS-35" value="uid - String" style="text;strokeColor=default;fillColor=none;align=left;verticalAlign=middle;spacingLeft=4;spacingRight=4;overflow=hidden;points=[[0,0.5],[1,0.5]];portConstraint=eastwest;rotatable=0;whiteSpace=wrap;html=1;" parent="xl_VdABn302iVjI30lWS-34" vertex="1">
                    <mxGeometry y="30" width="200" height="30" as="geometry"/>
                </mxCell>
                <mxCell id="xl_VdABn302iVjI30lWS-39" value="role - UserRole" style="text;strokeColor=default;fillColor=none;align=left;verticalAlign=middle;spacingLeft=4;spacingRight=4;overflow=hidden;points=[[0,0.5],[1,0.5]];portConstraint=eastwest;rotatable=0;whiteSpace=wrap;html=1;" parent="xl_VdABn302iVjI30lWS-34" vertex="1">
                    <mxGeometry y="60" width="200" height="30" as="geometry"/>
                </mxCell>
                <mxCell id="xl_VdABn302iVjI30lWS-36" value="email - String" style="text;strokeColor=default;fillColor=none;align=left;verticalAlign=middle;spacingLeft=4;spacingRight=4;overflow=hidden;points=[[0,0.5],[1,0.5]];portConstraint=eastwest;rotatable=0;whiteSpace=wrap;html=1;" parent="xl_VdABn302iVjI30lWS-34" vertex="1">
                    <mxGeometry y="90" width="200" height="30" as="geometry"/>
                </mxCell>
                <mxCell id="xl_VdABn302iVjI30lWS-37" value="displayName - String" style="text;strokeColor=default;fillColor=none;align=left;verticalAlign=middle;spacingLeft=4;spacingRight=4;overflow=hidden;points=[[0,0.5],[1,0.5]];portConstraint=eastwest;rotatable=0;whiteSpace=wrap;html=1;" parent="xl_VdABn302iVjI30lWS-34" vertex="1">
                    <mxGeometry y="120" width="200" height="30" as="geometry"/>
                </mxCell>
                <mxCell id="13" value="imageURL - String" style="text;strokeColor=none;fillColor=none;align=left;verticalAlign=middle;spacingLeft=4;spacingRight=4;overflow=hidden;points=[[0,0.5],[1,0.5]];portConstraint=eastwest;rotatable=0;whiteSpace=wrap;html=1;" parent="xl_VdABn302iVjI30lWS-34" vertex="1">
                    <mxGeometry y="150" width="200" height="30" as="geometry"/>
                </mxCell>
                <mxCell id="xl_VdABn302iVjI30lWS-43" value="Workout" style="swimlane;fontStyle=0;childLayout=stackLayout;horizontal=1;startSize=30;horizontalStack=0;resizeParent=1;resizeParentMax=0;resizeLast=0;collapsible=1;marginBottom=0;whiteSpace=wrap;html=1;strokeColor=default;" parent="1" vertex="1">
                    <mxGeometry x="550" y="10" width="240" height="180" as="geometry"/>
                </mxCell>
                <mxCell id="xl_VdABn302iVjI30lWS-44" value="uid - String" style="text;strokeColor=default;fillColor=none;align=left;verticalAlign=middle;spacingLeft=4;spacingRight=4;overflow=hidden;points=[[0,0.5],[1,0.5]];portConstraint=eastwest;rotatable=0;whiteSpace=wrap;html=1;" parent="xl_VdABn302iVjI30lWS-43" vertex="1">
                    <mxGeometry y="30" width="240" height="30" as="geometry"/>
                </mxCell>
                <mxCell id="2" value="schedule - Schedule" style="text;strokeColor=none;fillColor=none;align=left;verticalAlign=middle;spacingLeft=4;spacingRight=4;overflow=hidden;points=[[0,0.5],[1,0.5]];portConstraint=eastwest;rotatable=0;whiteSpace=wrap;html=1;" parent="xl_VdABn302iVjI30lWS-43" vertex="1">
                    <mxGeometry y="60" width="240" height="30" as="geometry"/>
                </mxCell>
                <mxCell id="xl_VdABn302iVjI30lWS-45" value="name - String" style="text;strokeColor=default;fillColor=none;align=left;verticalAlign=middle;spacingLeft=4;spacingRight=4;overflow=hidden;points=[[0,0.5],[1,0.5]];portConstraint=eastwest;rotatable=0;whiteSpace=wrap;html=1;" parent="xl_VdABn302iVjI30lWS-43" vertex="1">
                    <mxGeometry y="90" width="240" height="30" as="geometry"/>
                </mxCell>
                <mxCell id="14" value="description - String" style="text;strokeColor=none;fillColor=none;align=left;verticalAlign=middle;spacingLeft=4;spacingRight=4;overflow=hidden;points=[[0,0.5],[1,0.5]];portConstraint=eastwest;rotatable=0;whiteSpace=wrap;html=1;" vertex="1" parent="xl_VdABn302iVjI30lWS-43">
                    <mxGeometry y="120" width="240" height="30" as="geometry"/>
                </mxCell>
                <mxCell id="xl_VdABn302iVjI30lWS-46" value="workoutExercises - List&amp;lt;WorkoutExercise&amp;gt;" style="text;strokeColor=default;fillColor=none;align=left;verticalAlign=middle;spacingLeft=4;spacingRight=4;overflow=hidden;points=[[0,0.5],[1,0.5]];portConstraint=eastwest;rotatable=0;whiteSpace=wrap;html=1;" parent="xl_VdABn302iVjI30lWS-43" vertex="1">
                    <mxGeometry y="150" width="240" height="30" as="geometry"/>
                </mxCell>
                <mxCell id="11" style="edgeStyle=none;html=1;entryX=0;entryY=0.5;entryDx=0;entryDy=0;" parent="1" source="xl_VdABn302iVjI30lWS-47" target="xl_VdABn302iVjI30lWS-46" edge="1">
                    <mxGeometry relative="1" as="geometry"/>
                </mxCell>
                <mxCell id="xl_VdABn302iVjI30lWS-47" value="WorkoutExercise" style="swimlane;fontStyle=0;childLayout=stackLayout;horizontal=1;startSize=30;horizontalStack=0;resizeParent=1;resizeParentMax=0;resizeLast=0;collapsible=1;marginBottom=0;whiteSpace=wrap;html=1;strokeColor=default;" parent="1" vertex="1">
                    <mxGeometry x="390" y="130" width="140" height="150" as="geometry"/>
                </mxCell>
                <mxCell id="xl_VdABn302iVjI30lWS-48" value="uid - String" style="text;strokeColor=none;fillColor=none;align=left;verticalAlign=middle;spacingLeft=4;spacingRight=4;overflow=hidden;points=[[0,0.5],[1,0.5]];portConstraint=eastwest;rotatable=0;whiteSpace=wrap;html=1;" parent="xl_VdABn302iVjI30lWS-47" vertex="1">
                    <mxGeometry y="30" width="140" height="30" as="geometry"/>
                </mxCell>
                <mxCell id="xl_VdABn302iVjI30lWS-49" value="recommendedSets - int" style="text;strokeColor=none;fillColor=none;align=left;verticalAlign=middle;spacingLeft=4;spacingRight=4;overflow=hidden;points=[[0,0.5],[1,0.5]];portConstraint=eastwest;rotatable=0;whiteSpace=wrap;html=1;" parent="xl_VdABn302iVjI30lWS-47" vertex="1">
                    <mxGeometry y="60" width="140" height="30" as="geometry"/>
                </mxCell>
                <mxCell id="xl_VdABn302iVjI30lWS-51" value="weight - int" style="text;strokeColor=none;fillColor=none;align=left;verticalAlign=middle;spacingLeft=4;spacingRight=4;overflow=hidden;points=[[0,0.5],[1,0.5]];portConstraint=eastwest;rotatable=0;whiteSpace=wrap;html=1;" parent="xl_VdABn302iVjI30lWS-47" vertex="1">
                    <mxGeometry y="90" width="140" height="30" as="geometry"/>
                </mxCell>
                <mxCell id="xl_VdABn302iVjI30lWS-50" value="recommendedReps - int" style="text;strokeColor=none;fillColor=none;align=left;verticalAlign=middle;spacingLeft=4;spacingRight=4;overflow=hidden;points=[[0,0.5],[1,0.5]];portConstraint=eastwest;rotatable=0;whiteSpace=wrap;html=1;" parent="xl_VdABn302iVjI30lWS-47" vertex="1">
                    <mxGeometry y="120" width="140" height="30" as="geometry"/>
                </mxCell>
                <mxCell id="3" value="Schedule" style="swimlane;fontStyle=0;childLayout=stackLayout;horizontal=1;startSize=30;horizontalStack=0;resizeParent=1;resizeParentMax=0;resizeLast=0;collapsible=1;marginBottom=0;whiteSpace=wrap;html=1;" parent="1" vertex="1">
                    <mxGeometry x="390" y="10" width="140" height="100" as="geometry"/>
                </mxCell>
                <mxCell id="4" value="daily, twoDaysAWeek, threeDaysAWeek, fourDaysAWeek, weekly, monthly, none" style="text;strokeColor=none;fillColor=none;align=left;verticalAlign=middle;spacingLeft=4;spacingRight=4;overflow=hidden;points=[[0,0.5],[1,0.5]];portConstraint=eastwest;rotatable=0;whiteSpace=wrap;html=1;" parent="3" vertex="1">
                    <mxGeometry y="30" width="140" height="70" as="geometry"/>
                </mxCell>
                <mxCell id="10" style="edgeStyle=none;html=1;entryX=0;entryY=0.5;entryDx=0;entryDy=0;" parent="1" source="4" target="2" edge="1">
                    <mxGeometry relative="1" as="geometry"/>
                </mxCell>
            </root>
        </mxGraphModel>
    </diagram>
    <diagram id="i04HwoG6m0wZgIzGmgTt" name="Navigation-Flow">
        <mxGraphModel dx="596" dy="490" grid="1" gridSize="10" guides="1" tooltips="1" connect="1" arrows="1" fold="1" page="1" pageScale="1" pageWidth="900" pageHeight="800" math="0" shadow="0">
            <root>
                <mxCell id="0"/>
                <mxCell id="1" parent="0"/>
                <mxCell id="qdFDzYs4Kr_K3d7UilUo-35" style="edgeStyle=orthogonalEdgeStyle;curved=1;rounded=1;html=1;" edge="1" parent="1" source="qdFDzYs4Kr_K3d7UilUo-3" target="qdFDzYs4Kr_K3d7UilUo-6">
                    <mxGeometry relative="1" as="geometry"/>
                </mxCell>
                <mxCell id="qdFDzYs4Kr_K3d7UilUo-3" value="OnBoardingScreen" style="text;html=1;strokeColor=default;fillColor=default;align=center;verticalAlign=middle;whiteSpace=wrap;rounded=1;gradientColor=none;strokeWidth=2;" vertex="1" parent="1">
                    <mxGeometry x="40" y="40" width="120" height="30" as="geometry"/>
                </mxCell>
                <mxCell id="qdFDzYs4Kr_K3d7UilUo-21" value="" style="group" vertex="1" connectable="0" parent="1">
                    <mxGeometry x="200" y="40" width="380" height="150" as="geometry"/>
                </mxCell>
                <mxCell id="qdFDzYs4Kr_K3d7UilUo-6" value="LoginScreen" style="rounded=1;whiteSpace=wrap;html=1;strokeColor=default;strokeWidth=2;fillColor=default;gradientColor=none;verticalAlign=top;" vertex="1" parent="qdFDzYs4Kr_K3d7UilUo-21">
                    <mxGeometry width="380" height="150" as="geometry"/>
                </mxCell>
                <mxCell id="qdFDzYs4Kr_K3d7UilUo-17" value="" style="group" vertex="1" connectable="0" parent="qdFDzYs4Kr_K3d7UilUo-21">
                    <mxGeometry x="10" y="20" width="360" height="115" as="geometry"/>
                </mxCell>
                <mxCell id="qdFDzYs4Kr_K3d7UilUo-7" value="SignInPage" style="text;html=1;strokeColor=default;fillColor=default;align=center;verticalAlign=middle;whiteSpace=wrap;rounded=1;gradientColor=none;strokeWidth=2;" vertex="1" parent="qdFDzYs4Kr_K3d7UilUo-17">
                    <mxGeometry x="120" y="95" width="120" height="20" as="geometry"/>
                </mxCell>
                <mxCell id="qdFDzYs4Kr_K3d7UilUo-13" style="edgeStyle=orthogonalEdgeStyle;curved=1;rounded=1;html=1;entryX=0;entryY=0.5;entryDx=0;entryDy=0;" edge="1" parent="qdFDzYs4Kr_K3d7UilUo-17" source="qdFDzYs4Kr_K3d7UilUo-8" target="qdFDzYs4Kr_K3d7UilUo-7">
                    <mxGeometry relative="1" as="geometry"/>
                </mxCell>
                <mxCell id="qdFDzYs4Kr_K3d7UilUo-8" value="SignUpPage" style="text;html=1;strokeColor=default;fillColor=default;align=center;verticalAlign=middle;whiteSpace=wrap;rounded=1;gradientColor=none;strokeWidth=2;" vertex="1" parent="qdFDzYs4Kr_K3d7UilUo-17">
                    <mxGeometry y="50" width="120" height="20" as="geometry"/>
                </mxCell>
                <mxCell id="qdFDzYs4Kr_K3d7UilUo-12" style="edgeStyle=orthogonalEdgeStyle;curved=1;rounded=1;html=1;entryX=1;entryY=0.5;entryDx=0;entryDy=0;" edge="1" parent="qdFDzYs4Kr_K3d7UilUo-17" source="qdFDzYs4Kr_K3d7UilUo-7" target="qdFDzYs4Kr_K3d7UilUo-8">
                    <mxGeometry relative="1" as="geometry"/>
                </mxCell>
                <mxCell id="qdFDzYs4Kr_K3d7UilUo-16" style="edgeStyle=orthogonalEdgeStyle;curved=1;rounded=1;html=1;entryX=1;entryY=0.5;entryDx=0;entryDy=0;" edge="1" parent="qdFDzYs4Kr_K3d7UilUo-17" source="qdFDzYs4Kr_K3d7UilUo-9" target="qdFDzYs4Kr_K3d7UilUo-7">
                    <mxGeometry relative="1" as="geometry"/>
                </mxCell>
                <mxCell id="qdFDzYs4Kr_K3d7UilUo-9" value="SendPasswordPage" style="text;html=1;strokeColor=default;fillColor=default;align=center;verticalAlign=middle;whiteSpace=wrap;rounded=1;gradientColor=none;strokeWidth=2;" vertex="1" parent="qdFDzYs4Kr_K3d7UilUo-17">
                    <mxGeometry x="240" y="50" width="120" height="20" as="geometry"/>
                </mxCell>
                <mxCell id="qdFDzYs4Kr_K3d7UilUo-14" style="edgeStyle=orthogonalEdgeStyle;curved=1;rounded=1;html=1;entryX=0;entryY=0.5;entryDx=0;entryDy=0;" edge="1" parent="qdFDzYs4Kr_K3d7UilUo-17" source="qdFDzYs4Kr_K3d7UilUo-7" target="qdFDzYs4Kr_K3d7UilUo-9">
                    <mxGeometry relative="1" as="geometry"/>
                </mxCell>
                <mxCell id="qdFDzYs4Kr_K3d7UilUo-24" value="" style="group" vertex="1" connectable="0" parent="1">
                    <mxGeometry x="620" y="30" width="380" height="230" as="geometry"/>
                </mxCell>
                <mxCell id="qdFDzYs4Kr_K3d7UilUo-25" value="HomeScreen" style="rounded=1;whiteSpace=wrap;html=1;strokeColor=default;strokeWidth=2;fillColor=default;gradientColor=none;verticalAlign=top;" vertex="1" parent="qdFDzYs4Kr_K3d7UilUo-24">
                    <mxGeometry width="380" height="230.00000000000003" as="geometry"/>
                </mxCell>
                <mxCell id="qdFDzYs4Kr_K3d7UilUo-26" value="" style="group" vertex="1" connectable="0" parent="qdFDzYs4Kr_K3d7UilUo-24">
                    <mxGeometry x="10" y="30.666666666666668" width="370" height="176.33333333333334" as="geometry"/>
                </mxCell>
                <mxCell id="qdFDzYs4Kr_K3d7UilUo-27" value="ExercisePage" style="text;html=1;strokeColor=default;fillColor=default;align=center;verticalAlign=middle;whiteSpace=wrap;rounded=1;gradientColor=none;strokeWidth=2;" vertex="1" parent="qdFDzYs4Kr_K3d7UilUo-26">
                    <mxGeometry x="120" y="145.66666666666669" width="120" height="30.666666666666668" as="geometry"/>
                </mxCell>
                <mxCell id="qdFDzYs4Kr_K3d7UilUo-32" value="ProfilePage" style="text;html=1;strokeColor=default;fillColor=default;align=center;verticalAlign=middle;whiteSpace=wrap;rounded=1;gradientColor=none;strokeWidth=2;" vertex="1" parent="qdFDzYs4Kr_K3d7UilUo-26">
                    <mxGeometry x="240" y="30.666666666666668" width="120" height="30.666666666666668" as="geometry"/>
                </mxCell>
                <mxCell id="qdFDzYs4Kr_K3d7UilUo-41" style="edgeStyle=orthogonalEdgeStyle;curved=1;rounded=1;html=1;" edge="1" parent="qdFDzYs4Kr_K3d7UilUo-26" source="qdFDzYs4Kr_K3d7UilUo-27" target="qdFDzYs4Kr_K3d7UilUo-32">
                    <mxGeometry relative="1" as="geometry"/>
                </mxCell>
                <mxCell id="qdFDzYs4Kr_K3d7UilUo-42" style="edgeStyle=orthogonalEdgeStyle;curved=1;rounded=1;html=1;" edge="1" parent="qdFDzYs4Kr_K3d7UilUo-26" source="qdFDzYs4Kr_K3d7UilUo-32" target="qdFDzYs4Kr_K3d7UilUo-27">
                    <mxGeometry relative="1" as="geometry"/>
                </mxCell>
                <mxCell id="qdFDzYs4Kr_K3d7UilUo-44" value="HomeSettingsDrawer" style="text;html=1;strokeColor=default;fillColor=default;align=center;verticalAlign=middle;whiteSpace=wrap;rounded=1;gradientColor=none;strokeWidth=2;" vertex="1" parent="qdFDzYs4Kr_K3d7UilUo-26">
                    <mxGeometry x="10" y="-10.663333333333284" width="120" height="30.666666666666668" as="geometry"/>
                </mxCell>
                <mxCell id="qdFDzYs4Kr_K3d7UilUo-29" value="WorkoutPage" style="text;html=1;strokeColor=default;fillColor=default;align=center;verticalAlign=middle;whiteSpace=wrap;rounded=1;gradientColor=none;strokeWidth=2;" vertex="1" parent="qdFDzYs4Kr_K3d7UilUo-24">
                    <mxGeometry x="10" y="61.333333333333336" width="120" height="30.666666666666668" as="geometry"/>
                </mxCell>
                <mxCell id="qdFDzYs4Kr_K3d7UilUo-37" style="edgeStyle=orthogonalEdgeStyle;curved=1;rounded=1;html=1;" edge="1" parent="qdFDzYs4Kr_K3d7UilUo-24" source="qdFDzYs4Kr_K3d7UilUo-29" target="qdFDzYs4Kr_K3d7UilUo-32">
                    <mxGeometry relative="1" as="geometry"/>
                </mxCell>
                <mxCell id="qdFDzYs4Kr_K3d7UilUo-38" style="edgeStyle=orthogonalEdgeStyle;curved=1;rounded=1;html=1;" edge="1" parent="qdFDzYs4Kr_K3d7UilUo-24" source="qdFDzYs4Kr_K3d7UilUo-29" target="qdFDzYs4Kr_K3d7UilUo-27">
                    <mxGeometry relative="1" as="geometry"/>
                </mxCell>
                <mxCell id="qdFDzYs4Kr_K3d7UilUo-39" style="edgeStyle=orthogonalEdgeStyle;curved=1;rounded=1;html=1;" edge="1" parent="qdFDzYs4Kr_K3d7UilUo-24" source="qdFDzYs4Kr_K3d7UilUo-32" target="qdFDzYs4Kr_K3d7UilUo-29">
                    <mxGeometry relative="1" as="geometry"/>
                </mxCell>
                <mxCell id="qdFDzYs4Kr_K3d7UilUo-40" style="edgeStyle=orthogonalEdgeStyle;curved=1;rounded=1;html=1;" edge="1" parent="qdFDzYs4Kr_K3d7UilUo-24" source="qdFDzYs4Kr_K3d7UilUo-27" target="qdFDzYs4Kr_K3d7UilUo-29">
                    <mxGeometry relative="1" as="geometry"/>
                </mxCell>
                <mxCell id="qdFDzYs4Kr_K3d7UilUo-34" style="edgeStyle=orthogonalEdgeStyle;curved=1;rounded=1;html=1;" edge="1" parent="1" source="qdFDzYs4Kr_K3d7UilUo-6" target="qdFDzYs4Kr_K3d7UilUo-25">
                    <mxGeometry relative="1" as="geometry"/>
                </mxCell>
            </root>
        </mxGraphModel>
    </diagram>
</mxfile>